<svg width="187" height="48" fill="none" xmlns="http://www.w3.org/2000/svg"><path d="M89.234 7.66c20.427-1.538 40.846-4.89 61.316-5.657 1.932-.073-4.484 1.44-5.128 1.606-12.168 3.133-24.514 5.808-36.733 8.764-24.34 5.89-48.875 10.143-73.573 14.073-1.898.302-5.368.97-.983.628 12.054-.94 24.045-3.22 36.137-4.19 36.341-2.914 72.838-5.205 109.006-9.917 1.715-.223 3.314-.575 4.987-.908 3.703-.736-7.566.188-11.308.699-13.219 1.804-26.163 4.492-39.227 7.158-21.497 4.386-43.203 7.452-64.617 12.291-17.506 3.956-34.957 7.863-52.607 11.14C11.684 44.24 6.708 44.662 2 46" stroke="#F4F4F4" stroke-width="3" stroke-linecap="round" stroke-linejoin="round"/></svg>